<?xml version="1.0" encoding="UTF-8"?>
<svg id="Layer_1" xmlns="http://www.w3.org/2000/svg" version="1.1" viewBox="0 0 466.16 76.8">
  <!-- Generator: Adobe Illustrator 30.2.1, SVG Export Plug-In . SVG Version: 2.1.1 Build 1)  -->
  <defs>
    <style>
      .st0 {
        fill: #fff;
      }
    </style>
  </defs>
  <polygon class="st0" points="3.85 16.73 18.4 16.73 18.4 60.28 3.85 60.28 3.85 72.03 45.58 72.03 45.58 60.28 31.03 60.28 31.03 16.73 45.58 16.73 45.58 5.04 3.85 5.04 3.85 16.73"/>
  <path class="st0" d="M93.01,8.99c-4.09-2.64-8.93-3.95-14.55-3.95h-18.94v66.99h18.94c5.61,0,10.46-1.32,14.55-3.95,4.09-2.63,7.23-6.39,9.43-11.25,2.2-4.86,3.3-10.63,3.3-17.31v-1.96c0-6.7-1.1-12.48-3.3-17.33-2.2-4.85-5.34-8.59-9.43-11.23ZM92.96,39.75c0,6.83-1.23,11.97-3.7,15.41-2.46,3.45-6.14,5.17-11.04,5.17h-6.32V16.73h6.32c4.86,0,8.54,1.72,11.02,5.17,2.48,3.45,3.72,8.58,3.72,15.41v2.43Z"/>
  <polygon class="st0" points="130.57 43.58 154.8 43.58 154.8 31.98 130.57 31.98 130.57 16.69 158.54 16.69 158.54 5.04 118.13 5.04 118.13 72.03 159.29 72.03 159.29 60.38 130.57 60.38 130.57 43.58"/>
  <polygon class="st0" points="219.12 22.91 206.4 22.91 196.1 38.3 186.05 22.91 172.72 22.91 189.04 47.15 172.01 72.03 184.74 72.03 195.75 55.5 206.54 72.03 219.82 72.03 202.82 46.69 219.12 22.91"/>
  <polygon class="st0" points="247.14 5.04 226.32 72.03 239 72.03 250.74 27.87 252.71 18.89 253.03 18.89 255.09 27.87 266.74 72.03 279.65 72.03 259.02 5.04 247.14 5.04"/>
  <polygon class="st0" points="289.19 16.73 303.74 16.73 303.74 60.28 289.19 60.28 289.19 72.03 330.92 72.03 330.92 60.28 316.37 60.28 316.37 16.73 330.92 16.73 330.92 5.04 289.19 5.04 289.19 16.73"/>
  <path class="st0" d="M378.53,59.91l15.02-16.37c2.9-3.15,5.17-5.9,6.81-8.26,1.64-2.35,2.8-4.56,3.48-6.62.69-2.06,1.03-4.23,1.03-6.5v-.47c0-3.65-.83-6.83-2.48-9.54-1.65-2.71-3.97-4.83-6.95-6.36-2.98-1.53-6.43-2.29-10.36-2.29-5.36,0-10.06,1.35-14.08,4.05-4.02,2.7-7.06,6.57-9.12,11.62l11.79,4.68c2.34-5.39,5.83-8.09,10.48-8.09,2.37,0,4.22.65,5.54,1.96,1.33,1.31,1.99,3.12,1.99,5.43v.37c0,2.06-.48,4.01-1.43,5.85-.95,1.84-2.72,4.2-5.31,7.06l-22.87,25.35v10.24h44.02v-11.69h-27.55v-.42Z"/>
  <path class="st0" d="M462.49,38.74c-1.59-3.23-3.81-5.76-6.67-7.6-2.85-1.84-6.2-2.76-10.03-2.76-3.62,0-6.86.86-9.73,2.57l-.19-.33c1.34-1.06,2.57-2.14,3.7-3.23,1.12-1.09,2.29-2.35,3.51-3.79l11.41-13.66-10.2-7.39-15.44,20.35c-2.65,3.56-4.79,6.81-6.43,9.78-1.64,2.96-2.83,5.8-3.58,8.51-.75,2.71-1.12,5.46-1.12,8.23v.66c0,4.52,1.01,8.54,3.02,12.07,2.01,3.52,4.78,6.29,8.3,8.3,3.52,2.01,7.58,3.02,12.16,3.02s8.75-.99,12.3-2.97c3.56-1.98,6.34-4.71,8.35-8.19,2.01-3.48,3.02-7.46,3.02-11.95v-.61c0-4.12-.8-7.79-2.39-11.02ZM452.25,50.55c0,3.31-.97,5.98-2.92,8.02-1.95,2.04-4.62,3.06-8.02,3.06s-6.07-1.02-8.02-3.06c-1.95-2.04-2.92-4.72-2.92-8.02v-1.08c0-3.34.98-6.03,2.95-8.07,1.96-2.04,4.63-3.06,8-3.06s6.11,1.02,8.05,3.06c1.93,2.04,2.9,4.73,2.9,8.07v1.08Z"/>
  <rect class="st0" x="340.6" y="60.28" width="11.76" height="11.76"/>
</svg>