<?xml version="1.0" encoding="UTF-8"?>
<svg id="Foreground" xmlns="http://www.w3.org/2000/svg" version="1.1" viewBox="0 0 734.46 218.08">
  <!-- Generator: Adobe Illustrator 30.2.1, SVG Export Plug-In . SVG Version: 2.1.1 Build 1)  -->
  <defs>
    <style>
      .st0 {
        fill-rule: evenodd;
      }

      .st0, .st1 {
        fill: #fff;
      }
    </style>
  </defs>
  <path class="st0" d="M490.62,46.35v-10.2h-10.21v10.2h10.21ZM560.33,69.94h174.13v8.25h-174.13v17.82h-6.97l-32.23-27.13-2.04-1.87-1.62-1.7.26,3.91.17,3.06v23.73h-9.18v-43.88h6.97l30.87,25.85,2.81,2.47,2.21,2.3-.34-5.19-.08-2.38v-23.05h9.18v17.82ZM490.62,96.01v-43.88h-10.21v43.88h10.21ZM424.77,38.78h24.6v7.56h-24.6v-7.56ZM453.14,59.95v4.93l9.95-1.79v-1.02c0-3.74-.77-6.29-2.3-7.74-1.53-1.53-4.34-2.21-8.59-2.21h-30.27c-4.25.08-7.14.77-8.67,2.21-1.53,1.62-2.21,4.34-2.21,8.16v23.13c.08,4.08.77,6.8,2.21,8.25,1.62,1.45,4.51,2.13,8.67,2.13h30.27c4.25-.08,7.14-.77,8.67-2.13,1.53-1.62,2.21-4.34,2.21-8.25v-15.14h-26.62v7.48h16.67v9.78h-31.89v-27.81h31.89ZM352.08,96.01h45.33v-8.25h-35.12v-10.89h20.24v-7.48h-20.24v-9.78h34.7v-7.48h-44.9v43.88ZM0,69.94h174.13v-7.44c0-3.83.68-6.55,2.21-8.16,1.53-1.45,4.42-2.13,8.67-2.21h32.31c4.25,0,7.06.68,8.59,2.21,1.53,1.45,2.3,4.17,2.3,8.16v23.13c0,3.91-.76,6.63-2.3,8.16-1.53,1.45-4.34,2.13-8.59,2.21h-32.31c-4.17,0-7.06-.68-8.67-2.13-1.45-1.45-2.13-4.17-2.21-8.25v-7.44H0v-8.25ZM184.34,87.76h33.68v-27.81h-33.68v27.81ZM311.4,96.01h10.29v-19.9l22.71-23.98h-11.99l-15.14,16.84-15.05-16.84h-13.61l22.79,24.24v19.64ZM236.38,96.01h47.11v-8.25h-31.12l31.12-31.29v-4.34h-44.05v7.82h27.64l-30.7,31.29v4.76ZM204.02,46.35h8.5v-10.2h-8.5v10.2ZM189.82,46.35h8.5v-10.2h-8.5v10.2Z"/>
  <rect class="st1" y="209.83" width="734.46" height="8.25"/>
  <rect class="st1" width="734.46" height="8.25"/>
  <polyline class="st0" points="619.41 139.89 734.46 139.89 734.46 148.14 619.41 148.14"/>
  <polyline class="st0" points="0 139.89 108.07 139.89 108.07 148.14 0 148.14"/>
  <g>
    <path class="st1" d="M242.45,121.93h10.19v43.87h-10.19v-43.87Z"/>
    <path class="st1" d="M116.57,157.57h30.44v-35.58h10.68v33.41c0,3.93-.82,6.65-2.46,8.17-1.58,1.45-4.55,2.17-8.94,2.17h-29c-4.35,0-7.36-.72-9.02-2.17-1.45-1.38-2.25-4.1-2.38-8.17v-33.41h10.68v35.58Z"/>
    <path class="st1" d="M173.48,121.99h7.35l37.18,29.06v-29.06h9.61v43.75h-7.36l-37.09-29.48v29.48h-9.7v-43.75Z"/>
    <path class="st1" d="M242.46,121.99h10.68v43.75h-10.68v-43.75Z"/>
    <path class="st1" d="M508.92,121.99h10.68v43.75h-10.68v-43.75Z"/>
    <path class="st1" d="M258.58,121.99h12.1l18.51,31.75,17.48-31.75h11.07l-25.34,43.75h-7.34l-26.48-43.75Z"/>
    <path class="st1" d="M322.67,122.02h46.88v7.72h-36.2v9.52h21.1v7.55h-21.1v10.76h36.72v8.17h-47.4v-43.72Z"/>
    <path class="st1" d="M381.72,122.02h39.5c3.65,0,6.27.69,7.86,2.07,1.52,1.17,2.31,3.31,2.38,6.41v10.34c0,2.9-.79,5.03-2.38,6.41-1.59,1.17-4.2,1.83-7.86,1.97h-6.01l20.8,16.52h-15.31l-18.34-16.52h-10.05v16.52h-10.6v-43.72ZM392.32,129.59v12.09h24.31c1.79,0,3.04-.24,3.72-.72.62-.48,1-1.41,1.14-2.79v-5.07c0-1.24-.38-2.14-1.14-2.69-.55-.41-1.79-.69-3.72-.83h-24.31Z"/>
    <path class="st1" d="M453.72,129.83v9.21h28.47c4.35,0,7.35.73,9.01,2.17,1.45,1.38,2.24,4.11,2.38,8.18v6c0,4-.79,6.76-2.38,8.28-1.45,1.24-4.46,1.93-9.01,2.07h-28.38c-4.39,0-7.44-.72-9.16-2.17-1.45-1.38-2.24-4.1-2.38-8.17v-1.24l9.52-1.76v5.17h32.18v-10.05h-28.37c-4.42,0-7.46-.73-9.11-2.18-1.45-1.38-2.24-4.11-2.38-8.18v-4.87c0-4.01.79-6.7,2.38-8.08,1.52-1.38,4.55-2.14,9.11-2.28h25.96c4.13,0,7.1.73,8.89,2.18,1.66,1.32,2.52,3.77,2.59,7.37v1.03l-9.16,1.96v-4.66h-30.17Z"/>
    <path class="st1" d="M560.15,165.74h-10.68v-35.91h-21.1v-7.9h52.99v7.9h-21.2v35.91Z"/>
    <path class="st1" d="M611.56,146.09l-23.89-24.1h14.37l15.64,16.34,15.83-16.34h12.52l-23.79,23.89v19.86h-10.68v-19.65Z"/>
  </g>
</svg>