<?xml version="1.0" encoding="UTF-8"?>
<svg id="Foreground" xmlns="http://www.w3.org/2000/svg" version="1.1" viewBox="0 0 734.46 218.08">
  <!-- Generator: Adobe Illustrator 30.2.1, SVG Export Plug-In . SVG Version: 2.1.1 Build 1)  -->
  <defs>
    <style>
      .st0 {
        fill-rule: evenodd;
      }

      .st0, .st1 {
        fill: #fff;
      }
    </style>
  </defs>
  <path class="st0" d="M490.63,46.35v-10.2h-10.21v10.2h10.21ZM560.33,69.94h174.13v8.25h-174.13v17.82h-6.97l-32.23-27.13-2.04-1.87-1.62-1.7.26,3.91.17,3.06v23.73h-9.18v-43.88h6.97l30.87,25.85,2.81,2.47,2.21,2.3-.34-5.19-.08-2.38v-23.05h9.18v17.82ZM490.63,96.01v-43.88h-10.21v43.88h10.21ZM424.77,38.78h24.6v7.56h-24.6v-7.56ZM453.14,59.95v4.93l9.95-1.79v-1.02c0-3.74-.77-6.29-2.3-7.74-1.53-1.53-4.34-2.21-8.59-2.21h-30.27c-4.25.08-7.14.77-8.67,2.21-1.53,1.62-2.21,4.34-2.21,8.16v23.13c.08,4.08.77,6.8,2.21,8.25,1.62,1.45,4.51,2.13,8.67,2.13h30.27c4.25-.08,7.14-.77,8.67-2.13,1.53-1.62,2.21-4.34,2.21-8.25v-15.14h-26.62v7.48h16.67v9.78h-31.89v-27.81h31.89ZM352.08,96.01h45.33v-8.25h-35.12v-10.89h20.24v-7.48h-20.24v-9.78h34.7v-7.48h-44.9v43.88ZM0,69.94h174.13v-7.44c0-3.83.68-6.55,2.21-8.16,1.53-1.45,4.42-2.13,8.67-2.21h32.31c4.25,0,7.06.68,8.59,2.21,1.53,1.45,2.3,4.17,2.3,8.16v23.13c0,3.91-.76,6.63-2.3,8.16-1.53,1.45-4.34,2.13-8.59,2.21h-32.31c-4.17,0-7.06-.68-8.67-2.13-1.45-1.45-2.13-4.17-2.21-8.25v-7.44H0v-8.25ZM184.34,87.76h33.68v-27.81h-33.68v27.81ZM311.4,96.01h10.29v-19.9l22.71-23.98h-11.99l-15.14,16.84-15.05-16.84h-13.61l22.79,24.24v19.64ZM236.39,96.01h47.11v-8.25h-31.12l31.12-31.29v-4.34h-44.05v7.82h27.64l-30.7,31.29v4.76ZM204.02,46.35h8.5v-10.2h-8.5v10.2ZM189.82,46.35h8.5v-10.2h-8.5v10.2Z"/>
  <rect class="st1" x="0" y="209.83" width="734.46" height="8.25"/>
  <rect class="st1" x="0" y="0" width="734.46" height="8.25"/>
  <path class="st0" d="M672.76,165.95h-10.2v-43.88h10.2v17.82h61.7v8.25h-61.7v17.82ZM71.9,122.07v35.63h29.08v-35.63h10.2v33.5c0,3.91-.76,6.63-2.3,8.16-1.53,1.45-4.34,2.13-8.59,2.21h-27.72c-4.25,0-7.14-.68-8.67-2.13-1.45-1.45-2.13-4.17-2.21-8.25v-7.44H0v-8.25h61.7v-17.82h10.2ZM672.76,116.29v-10.21h-10.2v10.21h10.2ZM638.05,129.73v5.02l9.01-2.13v-.94c-.08-3.66-.85-6.12-2.38-7.48-1.53-1.45-4.34-2.13-8.5-2.13h-24.92c-4.25,0-7.14.77-8.67,2.3-1.53,1.53-2.21,4.17-2.21,8.08v4.85c.08,4,.76,6.72,2.21,8.16,1.53,1.53,4.42,2.21,8.67,2.21h27.38v10.04h-31.04v-5.19l-9.01,1.87v1.19c.08,4,.77,6.72,2.21,8.16,1.62,1.53,4.51,2.21,8.76,2.21h27.13c4.25-.08,7.06-.77,8.59-2.21,1.62-1.53,2.38-4.25,2.38-8.16v-6.04c-.08-4-.85-6.72-2.38-8.16-1.62-1.53-4.42-2.21-8.59-2.21h-27.38v-9.44h28.74ZM209.28,116.29v-10.21h-10.2v10.21h10.2ZM475.98,116.29v-10.21h-10.21v10.21h10.21ZM542.99,165.95h45.33v-8.25h-35.12v-10.88h20.24v-7.48h-20.24v-9.78h34.7v-7.48h-44.9v43.88ZM514.56,129.9h20.24v-7.82h-50.6v7.82h20.15v36.06h10.2v-36.06ZM475.98,165.95v-43.88h-10.21v43.88h10.21ZM441.27,129.73v5.02l9.01-2.13v-.94c-.08-3.66-.85-6.12-2.38-7.48-1.53-1.45-4.34-2.13-8.5-2.13h-24.92c-4.25,0-7.14.77-8.67,2.3-1.53,1.53-2.21,4.17-2.21,8.08v4.85c.08,4,.76,6.72,2.21,8.16,1.53,1.53,4.42,2.21,8.67,2.21h27.38v10.04h-31.04v-5.19l-9.01,1.87v1.19c.08,4,.77,6.72,2.21,8.16,1.62,1.53,4.51,2.21,8.76,2.21h27.13c4.25-.08,7.06-.77,8.59-2.21,1.62-1.53,2.38-4.25,2.38-8.16v-6.04c-.08-4-.85-6.72-2.38-8.16-1.62-1.53-4.42-2.21-8.59-2.21h-27.38v-9.44h28.74ZM341,165.95h10.04v-16.58h9.69l17.69,16.58h14.63l-20.24-16.58h5.7c3.57,0,6.04-.68,7.57-2.04,1.62-1.45,2.38-3.57,2.38-6.46v-10.29c-.08-3.15-.85-5.27-2.38-6.46-1.62-1.36-4.08-2.04-7.57-2.04h-37.5v43.88ZM374,129.64c1.87.08,3.06.34,3.57.85.68.6,1.02,1.45,1.02,2.64v5.27c0,1.36-.34,2.21-1.02,2.72-.68.51-1.87.77-3.57.77h-22.96v-12.25h22.96ZM281.1,165.95h45.33v-8.25h-35.12v-10.88h20.24v-7.48h-20.24v-9.78h34.7v-7.48h-44.9v43.88ZM242.24,165.95h7.06l24.15-43.88h-10.21l-16.92,31.72-17.77-31.72h-11.65l25.34,43.88ZM209.28,165.95v-43.88h-10.2v43.88h10.2ZM129.32,165.95h9.18v-23.73l-.17-3.06-.25-3.91,1.62,1.7,2.04,1.87,32.23,27.13h6.97v-43.88h-9.18v23.05l.08,2.38.34,5.19-2.21-2.3-2.81-2.46-30.87-25.85h-6.97v43.88ZM89.29,116.29h8.5v-10.2h-8.5v10.2ZM75.09,116.29h8.5v-10.2h-8.5v10.2Z"/>
</svg>